<svg width="34" height="34" viewBox="0 0 34 34" fill="none" xmlns="http://www.w3.org/2000/svg">
<path d="M6.62421 8.73328H9.37976V10.1111C9.37976 11.6266 10.6198 12.8666 12.1353 12.8666H20.402C21.9175 12.8666 23.1575 11.6266 23.1575 10.1111V8.73328H25.9131V15.6222H28.6687V8.73328C28.6687 7.21772 27.4287 5.97772 25.9131 5.97772H20.154C19.5753 4.3795 18.0598 3.22217 16.2687 3.22217C14.4775 3.22217 12.962 4.3795 12.3833 5.97772H6.62421C5.10865 5.97772 3.86865 7.21772 3.86865 8.73328V28.0222C3.86865 29.5377 5.10865 30.7777 6.62421 30.7777H14.8909V28.0222H6.62421V8.73328ZM16.2687 5.97772C17.0264 5.97772 17.6464 6.59772 17.6464 7.3555C17.6464 8.11328 17.0264 8.73328 16.2687 8.73328C15.5109 8.73328 14.8909 8.11328 14.8909 7.3555C14.8909 6.59772 15.5109 5.97772 16.2687 5.97772Z" fill="#006937"/>
<path d="M29.702 18.7222C29.1371 18.1573 28.2002 18.1573 27.6353 18.7222L21.1047 25.2666L17.9909 22.1666C17.426 21.6017 16.5029 21.6017 15.9242 22.1666C15.3593 22.7315 15.3593 23.6684 15.9242 24.2333L20.1264 28.4217C20.6638 28.9591 21.5318 28.9591 22.0691 28.4217L29.6882 20.7888C30.2669 20.2239 30.2669 19.2871 29.702 18.7222Z" fill="#006937"/>
</svg>
